@startuml

hide methods
skinparam classAttributeIconSize 0
left to right direction

class Client
class Result
class Report
class ParameterCategory
class Parameter
class TestType
class Test
class Sample


Client "1" -- "*" Test : < requested by

Report "1" -- "1" Client : > is sent to

ParameterCategory "1" -- "*" Parameter : < presented under

Parameter "1..*" -- "*" Test : < requests analysis of

TestType "*" -- "1" ParameterCategory : > analyzes a

TestType "1" -- "*" Test: < is of

Test "1" -- "1" Result : > has a

Test "1" -- "1" Report : < associated with

Sample "*" -- "1" Test : < collects

class Client{
-citizenID
-nhsID
-birthDate
-sex
-TIN
-phoneNumber
-email
-name
}

class Result{
}

class Report{
}

class ParameterCategory{
-code
-description
-nhsID
}

class Parameter{
-designation
-description
-code
}

class TestType{
-code
-description
-collectingMethod
}

class Test{
-description
-code
-nhsCode
-collectDateTime
-chemicalAnalysisDateTime
-diagnosisDateTime
-validationDateTime
}

class Sample{
-barcode
}

@enduml