@startuml
'https://plantuml.com/class-diagram
hide methods
skinparam classAttributeIconSize 0
left to right direction

class Test
class Sample

Test "*" -- "1" Company : < performs
Sample "*" -- "1" Test : < collects


class Company{
-designation
}

class Sample{
-barcode
}

class Test{
-description
-code
-nhsCode
-collectDateTime
-chemicalAnalysisDateTime
-diagnosisDateTime
-validationDateTime
}


@enduml