@startuml
'https://plantuml.com/class-diagram

hide methods
skinparam classAttributeIconSize 0
left to right direction


class Test
class Result
class NHSReport
class NHS
class Company

Test "1" -- "1" Result : > has a
NHSReport "1..*" -- "1" Company : < generates
NHSReport "1..*" -- "1" NHS : > is sent to
Test "*" -- "1" Company : < performs

class Test{
-description
-code
-nhsCode
-collectDateTime
-chemicalAnalysisDateTime
-diagnosisDateTime
-validationDateTime
}

class Result {
}

class NHSReport {
}

class NHS {
}

class Company{
-designation
}

@enduml